<svg xmlns="http://www.w3.org/2000/svg" viewBox="0 0 360 640" role="img" aria-labelledby="title desc">
  <title id="title">日本地図</title>
  <desc id="desc">北海道から九州、沖縄までを描いた日本列島のイラストマップ</desc>
  <defs>
    <linearGradient id="sea" x1="0" y1="0" x2="0" y2="1">
      <stop offset="0" stop-color="#e5f1ff" />
      <stop offset="1" stop-color="#c8ddff" />
    </linearGradient>
    <linearGradient id="land" x1="0" y1="0" x2="0.8" y2="1">
      <stop offset="0" stop-color="#5fb0ff" />
      <stop offset="0.45" stop-color="#4e9ded" />
      <stop offset="1" stop-color="#3b7fd3" />
    </linearGradient>
    <linearGradient id="highlight" x1="0" y1="0" x2="1" y2="1">
      <stop offset="0" stop-color="rgba(255,255,255,0.7)" />
      <stop offset="1" stop-color="rgba(255,255,255,0)" />
    </linearGradient>
    <filter id="shadow" x="-15%" y="-15%" width="130%" height="130%">
      <feDropShadow dx="0" dy="12" stdDeviation="12" flood-color="#365c93" flood-opacity="0.25" />
    </filter>
  </defs>
  <rect x="0" y="0" width="360" height="640" fill="url(#sea)" />
  <g filter="url(#shadow)">
    <path fill="url(#land)" d="M184 62l38 18 22 46-10 30 26 34-24 38 32 42-20 44-90 60-56 18-44-20-34-58 12-34-34-28 20-44 44-34 12-38z" />
    <path fill="url(#land)" d="M122 470l32-18 18 32-18 34-34 8-28-20z" />
    <path fill="url(#land)" d="M228 520l32-14 12 28-18 26-28 6-16-20z" />
    <path fill="url(#land)" d="M76 496l26-12 16 26-16 30-28 8-18-20z" />
    <path fill="url(#land)" d="M42 548l30-12 18 24-14 28-30 6-20-20z" />
    <path fill="url(#land)" d="M292 570l20-8 8 22-12 20-22 4-12-18z" />
  </g>
  <g fill="url(#highlight)">
    <path d="M168 90c18-8 38-4 54 12l-6 10c-14-10-32-12-46-6z" />
    <path d="M82 318c-10 24-4 48 12 70l-8 14c-18-26-26-54-14-86z" />
    <path d="M134 516c12-6 22-4 32 8l-6 10c-8-8-16-8-24-4z" />
  </g>
  <g stroke="#ffffff" stroke-width="1.5" stroke-linecap="round" stroke-linejoin="round">
    <path fill="none" opacity="0.4" d="M206 142l18 28-20 32 26 38-18 42-70 48" />
    <path fill="none" opacity="0.4" d="M154 252l-38 24-18 36 20 44" />
    <path fill="none" opacity="0.4" d="M108 360l38 60 52-8 44-38" />
  </g>
</svg>
